<svg xmlns="http://www.w3.org/2000/svg" viewBox="0 0 100 100">
  <circle cx="50" cy="50" r="20" fill="black"/>
  <circle cx="35" cy="50" r="12" fill="black"/>
  <path d="M 50 30 Q 70 10 90 30" fill="none" stroke="black" stroke-width="4"/>
  <path d="M 50 40 Q 80 20 95 40" fill="none" stroke="black" stroke-width="4"/>
  <path d="M 50 60 Q 80 80 95 60" fill="none" stroke="black" stroke-width="4"/>
  <path d="M 50 70 Q 70 90 90 70" fill="none" stroke="black" stroke-width="4"/>

  <path d="M 50 30 Q 30 10 10 30" fill="none" stroke="black" stroke-width="4"/>
  <path d="M 50 40 Q 20 20 5 40" fill="none" stroke="black" stroke-width="4"/>
  <path d="M 50 60 Q 20 80 5 60" fill="none" stroke="black" stroke-width="4"/>
  <path d="M 50 70 Q 30 90 10 70" fill="none" stroke="black" stroke-width="4"/>

  <circle cx="30" cy="45" r="3" fill="red"/>
  <circle cx="30" cy="55" r="3" fill="red"/>
</svg>
